<?xml version="1.0" encoding="utf-8"?>
<!-- Generator: Adobe Illustrator 21.1.0, SVG Export Plug-In . SVG Version: 6.00 Build 0)  -->
<svg version="1.1" id="Layer_1" xmlns="http://www.w3.org/2000/svg" xmlns:xlink="http://www.w3.org/1999/xlink" x="0px" y="0px"
	 viewBox="0 0 98.2 22.3" style="enable-background:new 0 0 98.2 22.3;" xml:space="preserve">
<style type="text/css">
	.st0{fill:#FFFFFF;}
</style>
<g>
	<path class="st0" d="M42,15.3c2.4,0,4.3-1.9,4.3-4.3c0-2.4-1.9-4.3-4.3-4.3c-2.4,0-4.3,1.9-4.3,4.3c0,0,0,0,0,0
		C37.7,13.4,39.6,15.3,42,15.3C42,15.3,42,15.3,42,15.3 M36.6,11.1c0-3,2.4-5.4,5.4-5.4c3,0,5.4,2.4,5.4,5.4S45,16.5,42,16.5
		c0,0,0,0,0,0C39,16.5,36.6,14.1,36.6,11.1L36.6,11.1 M29,11.1c0.7-0.1,1.8-0.8,2.2-1.3c-0.1,0.6-0.1,2.4,0,3
		C30.8,12,29.7,11.1,29,11.1 M25.1,5.3c0.9,0,1.5,0.8,1.5,1.8c0,1-0.7,1.8-1.5,1.8h-2.9V5.3L25.1,5.3L25.1,5.3z M25.1,13.3
		c0.9,0,1.5,0.8,1.5,1.8c0,1-0.7,1.8-1.5,1.8h-2.9v-3.6L25.1,13.3z M42,22c6,0,10.8-5,10.8-10.9c0-5.9-4.7-10.8-10.7-10.8
		c0,0-0.1,0-0.1,0c-6,0-9,4.4-9.8,6.1c0-2.7-2.6-5.8-5.7-5.8h-9.9v21.3h9.2c3.7,0,6.3-3.2,6.4-6C33.1,17.6,36,22,42,22 M15.5,21.9
		H9.7v-8.3H6v8.3H0L0,0.6h6v7.9h3.8V0.6h5.8L15.5,21.9L15.5,21.9z"/>
	<path class="st0" d="M87.4,16.8c-3,0-5.5-2.4-5.5-5.4c0-3,2.4-5.5,5.4-5.5c3,0,5.5,2.4,5.5,5.4c0,0,0,0,0,0
		C92.8,14.3,90.4,16.8,87.4,16.8 M87.3,0.4c-6,0-10.9,4.9-10.9,10.9s4.9,10.9,10.9,10.9c6,0,10.9-4.9,10.9-10.9
		C98.2,5.3,93.3,0.4,87.3,0.4L87.3,0.4"/>
	<path class="st0" d="M87.3,7C85,7,83,8.9,83,11.3c0,2.4,1.9,4.3,4.3,4.3c2.4,0,4.3-1.9,4.3-4.3C91.6,8.9,89.7,7,87.3,7
		C87.3,7,87.3,7,87.3,7"/>
	<path class="st0" d="M65.1,14.2h6.1c-1.4,3.9-5.1,3.3-5.1,3.3c-3-0.1-4.4-2.5-4.4-2.5c-2.5-4.4,0-7.6,0-7.6c1.1-2,4.2-2.2,4.2-2.2
		c3.7,0,4.9,2.7,4.9,2.7h5.7c-1.9-5.7-8.1-8.9-13.8-7s-8.9,8.1-7,13.8s8.1,8.9,13.8,7c4.9-1.6,8-6.5,7.5-11.6H65.1L65.1,14.2
		L65.1,14.2z"/>
</g>
</svg>
